<svg xmlns="http://www.w3.org/2000/svg" xmlns:xlink="http://www.w3.org/1999/xlink" width="500" zoomAndPan="magnify" viewBox="0 0 375 374.999991" height="500" preserveAspectRatio="xMidYMid meet" version="1.0"><defs><g/></defs><rect x="-37.5" width="450" fill="#ffffff" y="-37.499999" height="449.999989" fill-opacity="1"/><rect x="-37.5" width="450" fill="#e0f1e7" y="-37.499999" height="449.999989" fill-opacity="1"/><g fill="#000000" fill-opacity="1"><g transform="translate(99.461403, 150.028859)"><g><path d="M 3.046875 0.046875 C 2.535156 0.046875 2.078125 -0.0625 1.671875 -0.28125 C 1.273438 -0.507812 0.957031 -0.820312 0.71875 -1.21875 C 0.488281 -1.613281 0.375 -2.054688 0.375 -2.546875 C 0.375 -3.035156 0.488281 -3.476562 0.71875 -3.875 C 0.957031 -4.269531 1.28125 -4.578125 1.6875 -4.796875 C 2.09375 -5.023438 2.546875 -5.140625 3.046875 -5.140625 C 3.429688 -5.140625 3.78125 -5.078125 4.09375 -4.953125 C 4.414062 -4.828125 4.691406 -4.640625 4.921875 -4.390625 L 4.578125 -4.0625 C 4.171875 -4.457031 3.664062 -4.65625 3.0625 -4.65625 C 2.664062 -4.65625 2.300781 -4.5625 1.96875 -4.375 C 1.632812 -4.195312 1.375 -3.945312 1.1875 -3.625 C 1 -3.300781 0.90625 -2.941406 0.90625 -2.546875 C 0.90625 -2.148438 1 -1.789062 1.1875 -1.46875 C 1.375 -1.144531 1.632812 -0.890625 1.96875 -0.703125 C 2.300781 -0.523438 2.664062 -0.4375 3.0625 -0.4375 C 3.675781 -0.4375 4.179688 -0.640625 4.578125 -1.046875 L 4.921875 -0.703125 C 4.691406 -0.460938 4.414062 -0.273438 4.09375 -0.140625 C 3.769531 -0.015625 3.421875 0.046875 3.046875 0.046875 Z M 3.046875 0.046875 "/></g></g></g><g fill="#000000" fill-opacity="1"><g transform="translate(104.103305, 150.028859)"><g><path d="M 3.0625 0.046875 C 2.550781 0.046875 2.09375 -0.0664062 1.6875 -0.296875 C 1.28125 -0.523438 0.957031 -0.832031 0.71875 -1.21875 C 0.488281 -1.613281 0.375 -2.054688 0.375 -2.546875 C 0.375 -3.035156 0.488281 -3.476562 0.71875 -3.875 C 0.957031 -4.269531 1.28125 -4.578125 1.6875 -4.796875 C 2.09375 -5.023438 2.550781 -5.140625 3.0625 -5.140625 C 3.5625 -5.140625 4.015625 -5.023438 4.421875 -4.796875 C 4.828125 -4.578125 5.144531 -4.269531 5.375 -3.875 C 5.613281 -3.476562 5.734375 -3.035156 5.734375 -2.546875 C 5.734375 -2.054688 5.613281 -1.613281 5.375 -1.21875 C 5.144531 -0.820312 4.828125 -0.507812 4.421875 -0.28125 C 4.015625 -0.0625 3.5625 0.046875 3.0625 0.046875 Z M 3.0625 -0.4375 C 3.457031 -0.4375 3.816406 -0.523438 4.140625 -0.703125 C 4.472656 -0.890625 4.726562 -1.144531 4.90625 -1.46875 C 5.09375 -1.789062 5.1875 -2.148438 5.1875 -2.546875 C 5.1875 -2.941406 5.09375 -3.300781 4.90625 -3.625 C 4.726562 -3.945312 4.472656 -4.195312 4.140625 -4.375 C 3.816406 -4.5625 3.457031 -4.65625 3.0625 -4.65625 C 2.65625 -4.65625 2.285156 -4.5625 1.953125 -4.375 C 1.628906 -4.195312 1.375 -3.945312 1.1875 -3.625 C 1 -3.300781 0.90625 -2.941406 0.90625 -2.546875 C 0.90625 -2.148438 1 -1.789062 1.1875 -1.46875 C 1.375 -1.144531 1.628906 -0.890625 1.953125 -0.703125 C 2.285156 -0.523438 2.65625 -0.4375 3.0625 -0.4375 Z M 3.0625 -0.4375 "/></g></g></g><g fill="#000000" fill-opacity="1"><g transform="translate(109.618286, 150.028859)"><g><path d="M 5.09375 -5.09375 L 5.09375 0 L 4.640625 0 L 1.375 -4.140625 L 1.375 0 L 0.828125 0 L 0.828125 -5.09375 L 1.28125 -5.09375 L 4.5625 -0.96875 L 4.5625 -5.09375 Z M 5.09375 -5.09375 "/></g></g></g><g fill="#000000" fill-opacity="1"><g transform="translate(114.944103, 150.028859)"><g><path d="M 1.828125 -4.625 L 0.03125 -4.625 L 0.03125 -5.09375 L 4.15625 -5.09375 L 4.15625 -4.625 L 2.359375 -4.625 L 2.359375 0 L 1.828125 0 Z M 1.828125 -4.625 "/></g></g></g><g fill="#000000" fill-opacity="1"><g transform="translate(118.531024, 150.028859)"><g><path d="M 4.03125 -1.359375 L 1.1875 -1.359375 L 0.578125 0 L 0.015625 0 L 2.34375 -5.09375 L 2.875 -5.09375 L 5.203125 0 L 4.640625 0 Z M 3.828125 -1.796875 L 2.609375 -4.53125 L 1.390625 -1.796875 Z M 3.828125 -1.796875 "/></g></g></g><g fill="#000000" fill-opacity="1"><g transform="translate(123.158374, 150.028859)"><g><path d="M 3.046875 0.046875 C 2.535156 0.046875 2.078125 -0.0625 1.671875 -0.28125 C 1.273438 -0.507812 0.957031 -0.820312 0.71875 -1.21875 C 0.488281 -1.613281 0.375 -2.054688 0.375 -2.546875 C 0.375 -3.035156 0.488281 -3.476562 0.71875 -3.875 C 0.957031 -4.269531 1.28125 -4.578125 1.6875 -4.796875 C 2.09375 -5.023438 2.546875 -5.140625 3.046875 -5.140625 C 3.429688 -5.140625 3.78125 -5.078125 4.09375 -4.953125 C 4.414062 -4.828125 4.691406 -4.640625 4.921875 -4.390625 L 4.578125 -4.0625 C 4.171875 -4.457031 3.664062 -4.65625 3.0625 -4.65625 C 2.664062 -4.65625 2.300781 -4.5625 1.96875 -4.375 C 1.632812 -4.195312 1.375 -3.945312 1.1875 -3.625 C 1 -3.300781 0.90625 -2.941406 0.90625 -2.546875 C 0.90625 -2.148438 1 -1.789062 1.1875 -1.46875 C 1.375 -1.144531 1.632812 -0.890625 1.96875 -0.703125 C 2.300781 -0.523438 2.664062 -0.4375 3.0625 -0.4375 C 3.675781 -0.4375 4.179688 -0.640625 4.578125 -1.046875 L 4.921875 -0.703125 C 4.691406 -0.460938 4.414062 -0.273438 4.09375 -0.140625 C 3.769531 -0.015625 3.421875 0.046875 3.046875 0.046875 Z M 3.046875 0.046875 "/></g></g></g><g fill="#000000" fill-opacity="1"><g transform="translate(127.800276, 150.028859)"><g><path d="M 1.828125 -4.625 L 0.03125 -4.625 L 0.03125 -5.09375 L 4.15625 -5.09375 L 4.15625 -4.625 L 2.359375 -4.625 L 2.359375 0 L 1.828125 0 Z M 1.828125 -4.625 "/></g></g></g><g fill="#000000" fill-opacity="1"><g transform="translate(179.692401, 327.473372)"><g><path d="M 3.9375 -0.640625 L 3.9375 0 L 0.265625 0 L 0.265625 -0.5 L 2.34375 -2.5 C 2.59375 -2.738281 2.757812 -2.945312 2.84375 -3.125 C 2.9375 -3.300781 2.984375 -3.476562 2.984375 -3.65625 C 2.984375 -3.925781 2.890625 -4.132812 2.703125 -4.28125 C 2.515625 -4.425781 2.25 -4.5 1.90625 -4.5 C 1.34375 -4.5 0.90625 -4.316406 0.59375 -3.953125 L 0.109375 -4.390625 C 0.304688 -4.628906 0.566406 -4.816406 0.890625 -4.953125 C 1.210938 -5.085938 1.570312 -5.15625 1.96875 -5.15625 C 2.5 -5.15625 2.921875 -5.023438 3.234375 -4.765625 C 3.554688 -4.515625 3.71875 -4.171875 3.71875 -3.734375 C 3.71875 -3.460938 3.65625 -3.203125 3.53125 -2.953125 C 3.414062 -2.710938 3.195312 -2.441406 2.875 -2.140625 L 1.3125 -0.640625 Z M 3.9375 -0.640625 "/></g></g></g><g fill="#000000" fill-opacity="1"><g transform="translate(183.279322, 327.473372)"><g><path d="M 2.4375 0.0625 C 2.03125 0.0625 1.671875 -0.0390625 1.359375 -0.25 C 1.046875 -0.457031 0.796875 -0.753906 0.609375 -1.140625 C 0.429688 -1.535156 0.34375 -2.003906 0.34375 -2.546875 C 0.34375 -3.085938 0.429688 -3.550781 0.609375 -3.9375 C 0.796875 -4.332031 1.046875 -4.632812 1.359375 -4.84375 C 1.671875 -5.050781 2.03125 -5.15625 2.4375 -5.15625 C 2.832031 -5.15625 3.1875 -5.050781 3.5 -4.84375 C 3.8125 -4.632812 4.054688 -4.332031 4.234375 -3.9375 C 4.410156 -3.550781 4.5 -3.085938 4.5 -2.546875 C 4.5 -2.003906 4.410156 -1.535156 4.234375 -1.140625 C 4.054688 -0.753906 3.8125 -0.457031 3.5 -0.25 C 3.1875 -0.0390625 2.832031 0.0625 2.4375 0.0625 Z M 2.4375 -0.59375 C 2.84375 -0.59375 3.164062 -0.757812 3.40625 -1.09375 C 3.65625 -1.425781 3.78125 -1.910156 3.78125 -2.546875 C 3.78125 -3.179688 3.65625 -3.664062 3.40625 -4 C 3.164062 -4.332031 2.84375 -4.5 2.4375 -4.5 C 2.019531 -4.5 1.6875 -4.332031 1.4375 -4 C 1.195312 -3.664062 1.078125 -3.179688 1.078125 -2.546875 C 1.078125 -1.910156 1.195312 -1.425781 1.4375 -1.09375 C 1.6875 -0.757812 2.019531 -0.59375 2.4375 -0.59375 Z M 2.4375 -0.59375 "/></g></g></g><g fill="#000000" fill-opacity="1"><g transform="translate(187.542886, 327.473372)"><g><path d="M 3.9375 -0.640625 L 3.9375 0 L 0.265625 0 L 0.265625 -0.5 L 2.34375 -2.5 C 2.59375 -2.738281 2.757812 -2.945312 2.84375 -3.125 C 2.9375 -3.300781 2.984375 -3.476562 2.984375 -3.65625 C 2.984375 -3.925781 2.890625 -4.132812 2.703125 -4.28125 C 2.515625 -4.425781 2.25 -4.5 1.90625 -4.5 C 1.34375 -4.5 0.90625 -4.316406 0.59375 -3.953125 L 0.109375 -4.390625 C 0.304688 -4.628906 0.566406 -4.816406 0.890625 -4.953125 C 1.210938 -5.085938 1.570312 -5.15625 1.96875 -5.15625 C 2.5 -5.15625 2.921875 -5.023438 3.234375 -4.765625 C 3.554688 -4.515625 3.71875 -4.171875 3.71875 -3.734375 C 3.71875 -3.460938 3.65625 -3.203125 3.53125 -2.953125 C 3.414062 -2.710938 3.195312 -2.441406 2.875 -2.140625 L 1.3125 -0.640625 Z M 3.9375 -0.640625 "/></g></g></g><g fill="#000000" fill-opacity="1"><g transform="translate(191.129807, 327.473372)"><g><path d="M 1.8125 -3.0625 C 2.53125 -3.0625 3.0625 -2.925781 3.40625 -2.65625 C 3.75 -2.382812 3.921875 -2.007812 3.921875 -1.53125 C 3.921875 -1.226562 3.847656 -0.957031 3.703125 -0.71875 C 3.566406 -0.476562 3.351562 -0.285156 3.0625 -0.140625 C 2.769531 -0.00390625 2.414062 0.0625 2 0.0625 C 1.632812 0.0625 1.285156 0.0078125 0.953125 -0.09375 C 0.617188 -0.207031 0.34375 -0.363281 0.125 -0.5625 L 0.453125 -1.140625 C 0.628906 -0.972656 0.851562 -0.835938 1.125 -0.734375 C 1.394531 -0.640625 1.679688 -0.59375 1.984375 -0.59375 C 2.367188 -0.59375 2.664062 -0.671875 2.875 -0.828125 C 3.09375 -0.992188 3.203125 -1.21875 3.203125 -1.5 C 3.203125 -1.800781 3.082031 -2.03125 2.84375 -2.1875 C 2.613281 -2.351562 2.21875 -2.4375 1.65625 -2.4375 L 0.5 -2.4375 L 0.765625 -5.09375 L 3.640625 -5.09375 L 3.640625 -4.46875 L 1.375 -4.46875 L 1.234375 -3.0625 Z M 1.8125 -3.0625 "/></g></g></g><g fill="#000000" fill-opacity="1"><g transform="translate(128.782615, 216.221205)"><g><path d="M 23.328125 5.578125 C 20.109375 4.878906 17.359375 3.414062 15.078125 1.1875 C 12.796875 -1.039062 11.035156 -3.890625 9.796875 -7.359375 C 8.566406 -10.828125 7.898438 -14.789062 7.796875 -19.25 C 7.691406 -23.71875 8.207031 -28.554688 9.34375 -33.765625 C 10.476562 -38.953125 12.019531 -43.5625 13.96875 -47.59375 C 15.925781 -51.625 18.1875 -54.945312 20.75 -57.5625 C 23.3125 -60.1875 26.09375 -62.035156 29.09375 -63.109375 C 32.101562 -64.179688 35.21875 -64.367188 38.4375 -63.671875 C 41.644531 -62.960938 44.390625 -61.492188 46.671875 -59.265625 C 48.960938 -57.046875 50.722656 -54.210938 51.953125 -50.765625 C 53.179688 -47.316406 53.84375 -43.351562 53.9375 -38.875 C 54.03125 -34.394531 53.507812 -29.5625 52.375 -24.375 C 51.238281 -19.164062 49.695312 -14.550781 47.75 -10.53125 C 45.8125 -6.519531 43.5625 -3.191406 41 -0.546875 C 38.445312 2.085938 35.664062 3.941406 32.65625 5.015625 C 29.644531 6.097656 26.535156 6.285156 23.328125 5.578125 Z M 14.53125 -32.625 C 13.445312 -27.644531 12.890625 -23.003906 12.859375 -18.703125 C 12.828125 -14.398438 13.242188 -10.585938 14.109375 -7.265625 C 14.972656 -3.941406 16.207031 -1.25 17.8125 0.8125 C 19.425781 2.882812 21.335938 4.160156 23.546875 4.640625 C 25.753906 5.117188 28.007812 4.75 30.3125 3.53125 C 32.625 2.320312 34.863281 0.390625 37.03125 -2.265625 C 39.195312 -4.921875 41.160156 -8.210938 42.921875 -12.140625 C 44.679688 -16.066406 46.101562 -20.519531 47.1875 -25.5 C 48.269531 -30.46875 48.828125 -35.097656 48.859375 -39.390625 C 48.890625 -43.691406 48.472656 -47.492188 47.609375 -50.796875 C 46.753906 -54.109375 45.523438 -56.789062 43.921875 -58.84375 C 42.328125 -60.894531 40.425781 -62.160156 38.21875 -62.640625 C 36.007812 -63.117188 33.742188 -62.757812 31.421875 -61.5625 C 29.109375 -60.363281 26.863281 -58.441406 24.6875 -55.796875 C 22.519531 -53.160156 20.554688 -49.878906 18.796875 -45.953125 C 17.035156 -42.035156 15.613281 -37.59375 14.53125 -32.625 Z M 14.53125 -32.625 "/></g></g></g><g fill="#000000" fill-opacity="1"><g transform="translate(97.242018, 220.624848)"><g><path d="M 2.34375 -67.796875 L 38.65625 -67.796875 L 38.65625 -60.953125 C 37.15625 -61.609375 35.296875 -62.28125 33.078125 -62.96875 C 30.859375 -63.65625 28.351562 -64.296875 25.5625 -64.890625 C 22.78125 -65.484375 19.828125 -65.957031 16.703125 -66.3125 C 13.578125 -66.675781 10.351562 -66.859375 7.03125 -66.859375 L 7.03125 -36.21875 L 36.078125 -36.21875 L 36.078125 -29.375 C 34.578125 -30.03125 32.707031 -30.703125 30.46875 -31.390625 C 28.238281 -32.078125 25.800781 -32.71875 23.15625 -33.3125 C 20.507812 -33.90625 17.800781 -34.378906 15.03125 -34.734375 C 12.269531 -35.097656 9.601562 -35.28125 7.03125 -35.28125 L 7.03125 0 L 2.34375 0 Z M 2.34375 -67.796875 "/></g></g></g><g fill="#000000" fill-opacity="1"><g transform="translate(137.78889, 220.624848)"><g/></g></g><g fill="#000000" fill-opacity="1"><g transform="translate(161.249815, 220.624848)"><g/></g></g><g fill="#000000" fill-opacity="1"><g transform="translate(184.710762, 220.624848)"><g><path d="M 2.34375 0 L 2.34375 -67.796875 L 26.421875 -67.796875 C 30.390625 -67.796875 33.4375 -66.8125 35.5625 -64.84375 C 37.6875 -62.875 38.75 -60.265625 38.75 -57.015625 C 38.75 -55.003906 38.234375 -53.21875 37.203125 -51.65625 C 36.171875 -50.09375 34.800781 -48.671875 33.09375 -47.390625 C 31.394531 -46.109375 29.53125 -44.90625 27.5 -43.78125 C 25.46875 -42.65625 23.429688 -41.566406 21.390625 -40.515625 C 19.359375 -39.460938 17.488281 -38.375 15.78125 -37.25 C 14.082031 -36.125 12.71875 -34.910156 11.6875 -33.609375 C 10.65625 -32.316406 10.140625 -30.875 10.140625 -29.28125 C 10.140625 -28.78125 10.285156 -28.441406 10.578125 -28.265625 C 10.878906 -28.097656 11.21875 -28.015625 11.59375 -28.015625 C 12.40625 -28.015625 13.328125 -28.394531 14.359375 -29.15625 C 15.390625 -29.925781 16.519531 -30.878906 17.75 -32.015625 C 18.988281 -33.160156 20.320312 -34.296875 21.75 -35.421875 C 23.175781 -36.546875 24.6875 -37.492188 26.28125 -38.265625 C 27.875 -39.035156 29.546875 -39.421875 31.296875 -39.421875 C 33.015625 -39.421875 34.222656 -38.847656 34.921875 -37.703125 C 35.628906 -36.554688 35.984375 -34.953125 35.984375 -32.890625 C 35.984375 -31.453125 35.890625 -29.894531 35.703125 -28.21875 C 35.515625 -26.550781 35.285156 -24.925781 35.015625 -23.34375 C 34.753906 -21.757812 34.53125 -20.347656 34.34375 -19.109375 C 34.15625 -17.878906 34.0625 -16.953125 34.0625 -16.328125 C 34.0625 -13.578125 34.28125 -11.269531 34.71875 -9.40625 C 35.15625 -7.539062 35.796875 -5.890625 36.640625 -4.453125 C 37.484375 -3.015625 38.503906 -1.53125 39.703125 0 L 33.640625 0 C 32.109375 -1.65625 31.003906 -3.398438 30.328125 -5.234375 C 29.660156 -7.066406 29.328125 -8.9375 29.328125 -10.84375 C 29.328125 -13 29.582031 -15.175781 30.09375 -17.375 C 30.613281 -19.582031 31.21875 -21.75 31.90625 -23.875 C 32.59375 -26.007812 33.191406 -28.035156 33.703125 -29.953125 C 34.222656 -31.878906 34.484375 -33.625 34.484375 -35.1875 C 34.484375 -36.28125 34.1875 -37.109375 33.59375 -37.671875 C 33 -38.234375 32.25 -38.515625 31.34375 -38.515625 C 30.1875 -38.515625 29.128906 -38.21875 28.171875 -37.625 C 27.222656 -37.03125 26.316406 -36.265625 25.453125 -35.328125 C 24.597656 -34.390625 23.710938 -33.394531 22.796875 -32.34375 C 21.890625 -31.300781 20.894531 -30.3125 19.8125 -29.375 C 18.738281 -28.4375 17.519531 -27.671875 16.15625 -27.078125 C 14.800781 -26.484375 13.234375 -26.1875 11.453125 -26.1875 C 10.515625 -26.1875 9.890625 -26.503906 9.578125 -27.140625 C 9.265625 -27.785156 9.109375 -28.375 9.109375 -28.90625 C 9.109375 -30.5625 9.550781 -32.097656 10.4375 -33.515625 C 11.332031 -34.941406 12.503906 -36.289062 13.953125 -37.5625 C 15.410156 -38.832031 17.003906 -40.0625 18.734375 -41.25 C 20.472656 -42.4375 22.210938 -43.625 23.953125 -44.8125 C 25.691406 -46 27.285156 -47.222656 28.734375 -48.484375 C 30.191406 -49.753906 31.363281 -51.101562 32.25 -52.53125 C 33.144531 -53.957031 33.59375 -55.5 33.59375 -57.15625 C 33.59375 -58.75 33.203125 -60.25 32.421875 -61.65625 C 31.640625 -63.0625 30.472656 -64.207031 28.921875 -65.09375 C 27.378906 -65.988281 25.476562 -66.4375 23.21875 -66.4375 L 7.03125 -66.4375 L 7.03125 0 Z M 2.34375 0 "/></g></g></g><g fill="#000000" fill-opacity="1"><g transform="translate(226.283518, 220.624848)"><g><path d="M 2.34375 -67.796875 L 7.265625 -67.796875 C 7.929688 -65.765625 8.5 -63.972656 8.96875 -62.421875 C 9.4375 -60.878906 9.894531 -59.378906 10.34375 -57.921875 C 10.800781 -56.472656 11.300781 -54.878906 11.84375 -53.140625 C 12.394531 -51.398438 13.0625 -49.328125 13.84375 -46.921875 C 14.0625 -46.296875 14.28125 -45.675781 14.5 -45.0625 C 14.71875 -44.457031 14.988281 -43.953125 15.3125 -43.546875 C 15.644531 -43.140625 16.0625 -42.9375 16.5625 -42.9375 C 17.0625 -42.9375 17.488281 -43.09375 17.84375 -43.40625 C 18.207031 -43.71875 18.546875 -44.078125 18.859375 -44.484375 C 19.171875 -44.890625 19.5 -45.25 19.84375 -45.5625 C 20.1875 -45.875 20.59375 -46.03125 21.0625 -46.03125 C 21.5 -46.03125 21.800781 -45.84375 21.96875 -45.46875 C 22.144531 -45.09375 22.234375 -44.71875 22.234375 -44.34375 C 22.234375 -43.25 22.113281 -42.25 21.875 -41.34375 C 21.644531 -40.4375 21.363281 -39.550781 21.03125 -38.6875 C 20.707031 -37.820312 20.425781 -36.894531 20.1875 -35.90625 C 19.957031 -34.925781 19.84375 -33.8125 19.84375 -32.5625 C 19.84375 -30.09375 20.144531 -27.601562 20.75 -25.09375 C 21.363281 -22.59375 22.140625 -20.109375 23.078125 -17.640625 C 24.023438 -15.171875 24.953125 -12.75 25.859375 -10.375 L 44.296875 -67.796875 L 49.125 -67.796875 L 49.125 0 L 44.296875 0 L 44.296875 -64.46875 L 23.796875 -0.328125 C 23.378906 -1.390625 22.828125 -2.8125 22.140625 -4.59375 C 21.453125 -6.375 20.707031 -8.34375 19.90625 -10.5 C 19.113281 -12.664062 18.359375 -14.863281 17.640625 -17.09375 C 16.921875 -19.332031 16.332031 -21.453125 15.875 -23.453125 C 15.425781 -25.460938 15.203125 -27.203125 15.203125 -28.671875 C 15.203125 -30.203125 15.488281 -31.753906 16.0625 -33.328125 C 16.644531 -34.910156 17.300781 -36.421875 18.03125 -37.859375 C 18.769531 -39.304688 19.390625 -40.578125 19.890625 -41.671875 C 20.296875 -42.546875 20.53125 -43.28125 20.59375 -43.875 C 20.65625 -44.46875 20.546875 -44.765625 20.265625 -44.765625 C 20.015625 -44.765625 19.6875 -44.535156 19.28125 -44.078125 C 18.875 -43.628906 18.394531 -43.109375 17.84375 -42.515625 C 17.300781 -41.921875 16.6875 -41.394531 16 -40.9375 C 15.3125 -40.488281 14.5625 -40.265625 13.75 -40.265625 C 12.71875 -40.265625 11.890625 -40.566406 11.265625 -41.171875 C 10.640625 -41.785156 10.144531 -42.5625 9.78125 -43.5 C 9.425781 -44.4375 9.09375 -45.390625 8.78125 -46.359375 C 8.15625 -48.421875 7.585938 -50.238281 7.078125 -51.8125 C 6.578125 -53.394531 6.113281 -54.851562 5.6875 -56.1875 C 5.269531 -57.519531 4.875 -58.800781 4.5 -60.03125 C 4.125 -61.269531 3.71875 -62.59375 3.28125 -64 L 3.28125 -50.0625 C 3.28125 -46.65625 3.359375 -42.925781 3.515625 -38.875 C 3.671875 -34.820312 3.921875 -30.597656 4.265625 -26.203125 C 4.609375 -21.804688 5.035156 -17.382812 5.546875 -12.9375 C 6.066406 -8.5 6.671875 -4.1875 7.359375 0 L 2.34375 0 Z M 2.34375 -67.796875 "/></g></g></g></svg>